<svg id="visual" viewBox="0 0 1920 600" width="1920" height="600" xmlns="http://www.w3.org/2000/svg" xmlns:xlink="http://www.w3.org/1999/xlink" version="1.1"><path d="M0 241L53.3 215C106.7 189 213.3 137 320 153C426.7 169 533.3 253 640 245C746.7 237 853.3 137 960 112C1066.7 87 1173.3 137 1280 158C1386.7 179 1493.3 171 1600 193C1706.7 215 1813.3 267 1866.7 293L1920 319L1920 0L1866.7 0C1813.3 0 1706.7 0 1600 0C1493.3 0 1386.7 0 1280 0C1173.3 0 1066.7 0 960 0C853.3 0 746.7 0 640 0C533.3 0 426.7 0 320 0C213.3 0 106.7 0 53.3 0L0 0Z" fill="#2c6094"></path><path d="M0 343L53.3 341C106.7 339 213.3 335 320 351C426.7 367 533.3 403 640 406C746.7 409 853.3 379 960 369C1066.7 359 1173.3 369 1280 378C1386.7 387 1493.3 395 1600 397C1706.7 399 1813.3 395 1866.7 393L1920 391L1920 317L1866.7 291C1813.3 265 1706.7 213 1600 191C1493.3 169 1386.7 177 1280 156C1173.3 135 1066.7 85 960 110C853.3 135 746.7 235 640 243C533.3 251 426.7 167 320 151C213.3 135 106.7 187 53.3 213L0 239Z" fill="#114172"></path><path d="M0 445L53.3 441C106.7 437 213.3 429 320 448C426.7 467 533.3 513 640 526C746.7 539 853.3 519 960 502C1066.7 485 1173.3 471 1280 473C1386.7 475 1493.3 493 1600 501C1706.7 509 1813.3 507 1866.7 506L1920 505L1920 389L1866.7 391C1813.3 393 1706.7 397 1600 395C1493.3 393 1386.7 385 1280 376C1173.3 367 1066.7 357 960 367C853.3 377 746.7 407 640 404C533.3 401 426.7 365 320 349C213.3 333 106.7 337 53.3 339L0 341Z" fill="#002450"></path><path d="M0 601L53.3 601C106.7 601 213.3 601 320 601C426.7 601 533.3 601 640 601C746.7 601 853.3 601 960 601C1066.7 601 1173.3 601 1280 601C1386.7 601 1493.3 601 1600 601C1706.7 601 1813.3 601 1866.7 601L1920 601L1920 503L1866.7 504C1813.3 505 1706.7 507 1600 499C1493.3 491 1386.7 473 1280 471C1173.3 469 1066.7 483 960 500C853.3 517 746.7 537 640 524C533.3 511 426.7 465 320 446C213.3 427 106.7 435 53.3 439L0 443Z" fill="#000000"></path></svg>