<svg id="visual" viewBox="0 0 960 540" width="960" height="540" xmlns="http://www.w3.org/2000/svg" xmlns:xlink="http://www.w3.org/1999/xlink" version="1.1"><path d="M0 419L20 423.2C40 427.3 80 435.7 120 433.2C160 430.7 200 417.3 240 416.3C280 415.3 320 426.7 360 432.2C400 437.7 440 437.3 480 441.2C520 445 560 453 600 447C640 441 680 421 720 405.3C760 389.7 800 378.3 840 380.5C880 382.7 920 398.3 940 406.2L960 414L960 541L940 541C920 541 880 541 840 541C800 541 760 541 720 541C680 541 640 541 600 541C560 541 520 541 480 541C440 541 400 541 360 541C320 541 280 541 240 541C200 541 160 541 120 541C80 541 40 541 20 541L0 541Z" fill="#0066FF" stroke-linecap="round" stroke-linejoin="miter"></path></svg>